<?xml version="1.0" encoding="utf-8"?>
<!-- Generator: Adobe Illustrator 26.4.1, SVG Export Plug-In . SVG Version: 6.00 Build 0)  -->
<svg version="1.1" id="Слой_1" xmlns="http://www.w3.org/2000/svg" xmlns:xlink="http://www.w3.org/1999/xlink" x="0px" y="0px"
	 viewBox="0 0 108.5 19.2" style="enable-background:new 0 0 108.5 19.2;" xml:space="preserve">
<g>
	<path d="M21,9.7c0.3,0,0.5,0.2,0.5,0.7c0,0.2-0.1,0.4-0.2,0.6c-0.1,0.2-0.3,0.3-0.5,0.3c-0.9,0.2-1.8,0.4-2.7,0.6l0,0.4
		c-0.3,2-0.8,3.4-1.7,4.4c-0.8,0.9-1.9,1.4-3.1,1.4c-0.8,0-1.5-0.2-1.9-0.6c-0.5-0.4-0.7-0.9-0.7-1.6c0-1.1,0.5-2,1.4-2.8
		c0.9-0.8,2.4-1.5,4.3-2.2l0.3-2.1c0-0.2,0.1-0.6,0.2-1c-0.5,1.2-1.1,2.2-1.8,2.8c-0.7,0.6-1.5,0.9-2.4,0.9c-0.9,0-1.5-0.3-2-0.8
		c-0.5-0.5-0.7-1.2-0.7-2c0-0.4,0-0.8,0.1-1.2c0.1-0.4,0.2-1,0.4-1.8C10.7,5,10.8,4.4,10.8,4C10.9,3.6,11,3.2,11,2.9
		c0-0.5-0.2-0.7-0.6-0.7c-0.3,0-0.6,0.1-1,0.4C9,2.9,8.6,3.3,8.1,3.9C8,4.1,7.8,4.2,7.7,4.2C7.5,4.2,7.4,4.1,7.3,4
		C7.2,3.9,7.1,3.7,7.1,3.5c0-0.3,0.1-0.7,0.4-1.1c1-1.4,2.2-2.1,3.6-2.1c0.6,0,1.1,0.2,1.4,0.6c0.3,0.4,0.5,0.9,0.5,1.6
		c0,0.5,0,1.1-0.1,1.6c-0.1,0.5-0.2,1.2-0.4,2.1c-0.1,0.5-0.2,0.9-0.3,1.2c-0.1,0.3-0.1,0.6-0.1,0.8c0,0.5,0.1,0.9,0.3,1.1
		c0.2,0.2,0.5,0.3,0.9,0.3c0.5,0,1.1-0.3,1.7-0.9c0.6-0.6,1.1-1.5,1.5-2.7c0.5-1.2,0.8-2.7,1-4.4c0-0.4,0.2-0.8,0.3-0.9
		c0.2-0.2,0.4-0.3,0.8-0.3c0.7,0,1.1,0.4,1.1,1.1c0,0.1,0,0.2,0,0.3c-0.2,1.5-0.4,2.8-0.6,4C19,6.5,18.9,7.2,18.8,8
		c-0.1,0.8-0.2,1.5-0.3,2.3c0.7-0.2,1.5-0.4,2.3-0.5C20.8,9.7,20.9,9.7,21,9.7z M16.2,12.5c-2.4,0.8-3.6,1.9-3.6,3.1
		c0,0.3,0.1,0.5,0.3,0.7c0.2,0.2,0.4,0.3,0.7,0.3c1.4,0,2.3-1.3,2.6-3.9L16.2,12.5z"/>
	<path d="M27.6,10c0.1,0.1,0.1,0.3,0.1,0.5c0,0.4-0.1,0.7-0.3,0.9c-0.4,0.5-0.9,0.9-1.6,1.2c-0.7,0.4-1.4,0.6-2.2,0.6
		c-1.1,0-1.9-0.3-2.4-0.9c-0.6-0.6-0.9-1.4-0.9-2.3c0-0.7,0.1-1.3,0.4-1.9c0.3-0.6,0.7-1.1,1.2-1.4c0.5-0.4,1.1-0.5,1.7-0.5
		c0.6,0,1,0.2,1.4,0.5c0.4,0.3,0.5,0.8,0.5,1.4c0,0.7-0.2,1.3-0.7,1.8c-0.5,0.5-1.3,0.9-2.5,1.2c0.3,0.5,0.7,0.7,1.4,0.7
		c0.5,0,1-0.2,1.5-0.5c0.6-0.3,1.1-0.7,1.5-1.2c0.1-0.1,0.3-0.2,0.4-0.2C27.5,9.8,27.6,9.8,27.6,10z M22.6,8.2
		c-0.3,0.4-0.4,1-0.4,1.6v0c0.6-0.1,1.1-0.4,1.4-0.6c0.3-0.3,0.5-0.6,0.5-1c0-0.2-0.1-0.3-0.2-0.5c-0.1-0.1-0.2-0.2-0.4-0.2
		C23.2,7.6,22.9,7.8,22.6,8.2z"/>
	<path d="M26.8,12.6c-0.2-0.4-0.2-1-0.2-1.9c0-1.3,0.2-2.5,0.6-3.7c0.1-0.3,0.2-0.5,0.4-0.6c0.2-0.1,0.5-0.2,0.9-0.2
		c0.2,0,0.3,0,0.4,0.1C28.9,6.3,29,6.4,29,6.5c0,0.2-0.1,0.5-0.2,1.1c-0.1,0.4-0.2,0.8-0.2,1.1c-0.1,0.3-0.1,0.7-0.2,1.1
		c0.3-0.9,0.7-1.6,1.1-2.1c0.4-0.5,0.8-0.9,1.2-1.2c0.4-0.2,0.8-0.3,1.1-0.3c0.7,0,1,0.3,1,1c0,0.4-0.1,1.1-0.3,2.1
		c-0.2,0.9-0.3,1.4-0.3,1.7c0,0.4,0.1,0.6,0.4,0.6c0.2,0,0.4-0.1,0.7-0.4c0.3-0.2,0.6-0.6,1.1-1.2c0.1-0.1,0.3-0.2,0.4-0.2
		c0.1,0,0.2,0.1,0.3,0.2s0.1,0.3,0.1,0.5c0,0.4-0.1,0.7-0.3,0.9c-0.4,0.5-0.9,1-1.4,1.3c-0.5,0.3-1.1,0.5-1.7,0.5
		c-0.5,0-0.9-0.1-1.2-0.4c-0.3-0.3-0.4-0.7-0.4-1.3c0-0.3,0.1-0.8,0.2-1.5c0.1-0.6,0.2-1.1,0.2-1.3c0-0.2-0.1-0.2-0.2-0.2
		c-0.1,0-0.3,0.2-0.5,0.5c-0.2,0.3-0.5,0.8-0.7,1.3c-0.2,0.6-0.4,1.1-0.6,1.7c-0.1,0.5-0.2,0.8-0.4,1c-0.1,0.2-0.4,0.2-0.7,0.2
		C27.2,13.2,27,13,26.8,12.6z"/>
	<path d="M34.2,12.6c-0.2-0.4-0.2-1-0.2-1.9c0-1.3,0.2-2.5,0.6-3.7c0.1-0.3,0.2-0.5,0.4-0.6c0.2-0.1,0.5-0.2,0.9-0.2
		c0.2,0,0.3,0,0.4,0.1c0.1,0.1,0.1,0.1,0.1,0.3c0,0.2-0.1,0.5-0.2,1.1C36.1,8,36,8.3,36,8.6c-0.1,0.3-0.1,0.7-0.2,1.1
		c0.3-0.9,0.7-1.6,1.1-2.1c0.4-0.5,0.8-0.9,1.2-1.2c0.4-0.2,0.8-0.3,1.1-0.3c0.7,0,1,0.3,1,1c0,0.4-0.1,1.1-0.3,2.1
		c-0.2,0.9-0.3,1.4-0.3,1.7c0,0.4,0.1,0.6,0.4,0.6c0.2,0,0.4-0.1,0.7-0.4c0.3-0.2,0.6-0.6,1.1-1.2c0.1-0.1,0.3-0.2,0.4-0.2
		c0.1,0,0.2,0.1,0.3,0.2c0.1,0.1,0.1,0.3,0.1,0.5c0,0.4-0.1,0.7-0.3,0.9c-0.4,0.5-0.9,1-1.4,1.3c-0.5,0.3-1.1,0.5-1.7,0.5
		c-0.5,0-0.9-0.1-1.2-0.4s-0.4-0.7-0.4-1.3c0-0.3,0.1-0.8,0.2-1.5c0.1-0.6,0.2-1.1,0.2-1.3c0-0.2-0.1-0.2-0.2-0.2
		c-0.1,0-0.3,0.2-0.5,0.5c-0.2,0.3-0.5,0.8-0.7,1.3c-0.2,0.6-0.4,1.1-0.6,1.7c-0.1,0.5-0.2,0.8-0.4,1c-0.1,0.2-0.4,0.2-0.7,0.2
		C34.7,13.2,34.4,13,34.2,12.6z"/>
	<path d="M41.9,12.5c-0.3-0.5-0.4-1.1-0.4-1.8c0-0.5,0.1-1,0.2-1.7c0.1-0.7,0.3-1.4,0.4-2c0.1-0.3,0.2-0.5,0.4-0.7
		c0.2-0.1,0.4-0.2,0.7-0.2c0.5,0,0.8,0.2,0.8,0.5c0,0.3-0.1,0.8-0.3,1.7c-0.2,1.1-0.4,1.8-0.4,2.2c0,0.3,0,0.5,0.1,0.7
		c0.1,0.2,0.2,0.2,0.4,0.2c0.2,0,0.4-0.1,0.7-0.4c0.3-0.3,0.6-0.6,1.1-1.2c0.1-0.1,0.3-0.2,0.4-0.2c0.1,0,0.2,0.1,0.3,0.2
		c0.1,0.1,0.1,0.3,0.1,0.5c0,0.4-0.1,0.7-0.3,0.9c-1,1.2-1.9,1.8-2.8,1.8C42.6,13.2,42.2,13,41.9,12.5z M42.5,4.8
		c-0.2-0.2-0.3-0.5-0.3-0.8c0-0.4,0.1-0.6,0.4-0.9s0.6-0.4,1-0.4c0.4,0,0.7,0.1,0.9,0.3c0.2,0.2,0.3,0.4,0.3,0.8
		c0,0.4-0.1,0.7-0.4,1c-0.3,0.2-0.6,0.4-1,0.4C43,5.1,42.7,5,42.5,4.8z"/>
	<path d="M61.9,6.8C62,6.9,62,7,62,7.2c0,0.3-0.1,0.5-0.2,0.7c-0.2,0.2-0.4,0.3-0.7,0.3c-0.8,0-1.5,0-2.1-0.2
		c-0.7,1.5-1.6,2.7-2.6,3.7c-1,1-2,1.5-3,1.5c-1,0-1.8-0.6-2.3-1.8c-0.5-1.2-0.8-2.8-0.8-4.9c0-1.8,0.1-3.3,0.4-4.7
		c0.1-0.5,0.2-0.9,0.4-1.1c0.2-0.2,0.4-0.3,0.8-0.3c0.7,0,1,0.3,1,0.9c0,0.1,0,0.2,0,0.3c-0.3,1.8-0.5,3.4-0.5,4.9
		c0,1.5,0.1,2.7,0.4,3.5c0.3,0.8,0.6,1.2,1.1,1.2c0.5,0,1.1-0.4,1.7-1.1c0.6-0.7,1.2-1.6,1.7-2.7c-0.6-0.4-1.1-0.9-1.4-1.5
		c-0.3-0.6-0.5-1.3-0.5-2.1c0-0.8,0.1-1.5,0.4-2c0.2-0.5,0.6-1,1-1.2s0.9-0.4,1.4-0.4c0.6,0,1.1,0.2,1.5,0.7s0.6,1.1,0.6,1.9
		c0,1.2-0.3,2.4-0.8,3.8c0.5,0.1,1.1,0.1,1.8,0.1C61.6,6.6,61.8,6.7,61.9,6.8z M57.9,5.9c0.4-1.1,0.6-2,0.6-2.8
		c0-0.4-0.1-0.7-0.2-0.9C58.2,2,58,1.9,57.8,1.9c-0.3,0-0.5,0.2-0.7,0.5s-0.3,0.8-0.3,1.3C56.9,4.7,57.2,5.4,57.9,5.9z"/>
	<path d="M60.3,12.5c-0.4-0.5-0.6-1-0.6-1.8c0-0.8,0.2-1.6,0.6-2.3s0.9-1.3,1.5-1.7c0.6-0.4,1.3-0.7,2-0.7c0.2,0,0.4,0,0.4,0.1
		c0.1,0.1,0.1,0.2,0.2,0.5c0.2,0,0.4-0.1,0.7-0.1c0.5,0,0.7,0.2,0.7,0.5c0,0.2-0.1,0.7-0.2,1.5c-0.2,1.2-0.3,2-0.3,2.4
		c0,0.1,0,0.3,0.1,0.4c0.1,0.1,0.2,0.1,0.3,0.1c0.2,0,0.4-0.1,0.7-0.4c0.3-0.2,0.6-0.6,1.1-1.2c0.1-0.1,0.3-0.2,0.4-0.2
		c0.1,0,0.2,0.1,0.3,0.2s0.1,0.3,0.1,0.5c0,0.4-0.1,0.7-0.3,0.9c-0.4,0.5-0.8,0.9-1.3,1.3c-0.5,0.4-0.9,0.5-1.3,0.5
		c-0.3,0-0.6-0.1-0.9-0.3c-0.3-0.2-0.5-0.5-0.6-0.9c-0.5,0.8-1.2,1.3-2,1.3C61.2,13.2,60.7,13,60.3,12.5z M63,11.3
		c0.2-0.3,0.3-0.6,0.4-1L64,7.5c-0.4,0-0.8,0.2-1.2,0.5c-0.4,0.3-0.6,0.7-0.8,1.2c-0.2,0.5-0.3,1-0.3,1.6c0,0.3,0.1,0.5,0.2,0.7
		c0.1,0.2,0.3,0.2,0.5,0.2C62.6,11.7,62.8,11.6,63,11.3z M63.5,5c-0.1-0.1-0.2-0.2-0.2-0.4c0-0.1,0-0.2,0.1-0.3l1.4-3.1
		C64.9,1,65,0.8,65.2,0.7c0.1-0.1,0.3-0.1,0.5-0.1c0.3,0,0.5,0.1,0.7,0.3c0.2,0.2,0.3,0.4,0.3,0.7c0,0.3-0.1,0.6-0.3,0.8l-1.9,2.5
		c-0.1,0.2-0.3,0.3-0.5,0.3C63.8,5.1,63.6,5.1,63.5,5z"/>
	<path d="M74.5,10c0.1,0.1,0.1,0.3,0.1,0.5c0,0.4-0.1,0.7-0.3,0.9c-0.5,0.6-1.1,1.1-1.7,1.4c-0.7,0.4-1.5,0.5-2.3,0.5
		c-0.7,0-1.3-0.1-1.8-0.3c-0.5-0.2-0.9-0.5-1.1-0.8c-0.3-0.4-0.4-0.8-0.4-1.2c0-0.7,0.3-1.2,0.8-1.8c0.5-0.5,1.3-1,2.3-1.5l-2.5,0.1
		c-0.2,0-0.4-0.1-0.5-0.2c-0.1-0.2-0.2-0.4-0.2-0.6c0-0.2,0.1-0.5,0.2-0.6c0.1-0.2,0.3-0.3,0.5-0.3c0.5,0,1.1,0,1.8,0.1
		c0.2,0,0.5,0,0.9,0.1c0.4,0,0.8,0,1.1,0c0.1,0,0.3,0,0.6-0.1c0,0,0.1,0,0.3-0.1c0.1,0,0.3-0.1,0.4-0.1c0.2,0,0.3,0.1,0.4,0.2
		c0.1,0.1,0.2,0.4,0.2,0.6c0,0.3-0.1,0.6-0.2,0.8c-0.1,0.2-0.4,0.3-0.7,0.5c-0.9,0.4-1.7,0.8-2.3,1.3c-0.6,0.4-0.9,0.9-0.9,1.3
		c0,0.3,0.1,0.5,0.4,0.7c0.3,0.2,0.6,0.3,1.2,0.3c0.6,0,1.1-0.1,1.7-0.4c0.6-0.3,1.1-0.7,1.6-1.3c0.1-0.1,0.3-0.2,0.4-0.2
		C74.3,9.8,74.4,9.8,74.5,10z"/>
	<path d="M82,10.7c0,0.4-0.1,0.7-0.3,0.9C81.6,11.8,81.3,12,81,12l-0.6,0c-0.1,0-0.2,0-0.4,0c0,0.6,0.1,1.1,0.1,1.7
		c0,1.5-0.2,2.8-0.6,3.9c-0.4,1.1-1,1.7-1.9,1.7c-0.6,0-1-0.3-1.3-1c-0.3-0.7-0.4-1.5-0.4-2.4c0-1.2,0.1-2.3,0.4-3.5
		c-0.3,0.5-0.8,0.8-1.3,0.8c-0.6,0-1-0.2-1.4-0.7c-0.4-0.5-0.5-1.1-0.5-1.8c0-0.8,0.2-1.5,0.6-2.3c0.4-0.7,0.9-1.3,1.5-1.7
		c0.6-0.4,1.3-0.7,2-0.7c0.2,0,0.4,0.1,0.6,0.2c0.1-0.3,0.2-0.5,0.4-0.6c0.2-0.1,0.4-0.2,0.8-0.2c0.3,0,0.6,0.1,0.7,0.2
		c0.1,0.1,0.2,0.2,0.2,0.4c0,0.1-0.1,0.4-0.2,0.8c-0.1,0.4-0.2,0.7-0.2,0.9c-0.2,0.6-0.3,1.2-0.5,1.9c-0.2,0.7-0.3,1.3-0.4,1.9
		c-0.3,1.6-0.5,3-0.5,4.2c0,0.5,0,0.9,0.1,1.2c0.1,0.3,0.2,0.5,0.3,0.5c0.1,0,0.2-0.2,0.3-0.5c0.1-0.3,0.2-0.8,0.3-1.4
		c0.1-0.6,0.1-1.2,0.1-1.8c0-0.8,0-1.4-0.1-2c0,0,0-0.1,0-0.2c0-0.3,0.1-0.6,0.2-0.8c0.2-0.2,0.4-0.3,0.7-0.3c0,0,0.4,0,1.1,0
		c0.3,0,0.6,0,0.8,0C81.9,10.2,82,10.4,82,10.7z M76.2,11.3c0.2-0.3,0.4-0.6,0.5-1l0.6-2.7c-0.4,0-0.8,0.2-1.2,0.5
		c-0.4,0.3-0.7,0.7-0.9,1.2c-0.2,0.5-0.3,1-0.3,1.6c0,0.3,0.1,0.5,0.2,0.7c0.1,0.2,0.3,0.2,0.5,0.2C75.8,11.7,76,11.5,76.2,11.3z"/>
	<path d="M81.2,12.6c-0.3-0.4-0.4-0.9-0.4-1.6c0-0.8,0.1-1.4,0.1-2.1c0.1-0.6,0.3-1.3,0.5-2c0.1-0.3,0.2-0.5,0.4-0.6
		c0.2-0.1,0.5-0.2,0.9-0.2c0.2,0,0.4,0,0.5,0.1c0.1,0.1,0.1,0.2,0.1,0.3c0,0.1-0.1,0.4-0.2,0.8c-0.1,0.4-0.2,0.7-0.2,1
		c-0.2,1.1-0.3,1.8-0.3,2.1c0,0.2,0,0.4,0.1,0.4s0.1,0.1,0.2,0.1c0.2,0,0.3-0.1,0.6-0.5c0.2-0.3,0.5-0.8,0.7-1.4
		c0.3-0.6,0.5-1.4,0.7-2.3c0.1-0.3,0.2-0.5,0.4-0.6c0.2-0.1,0.4-0.2,0.7-0.2c0.2,0,0.4,0,0.5,0.1c0.1,0.1,0.1,0.2,0.1,0.3
		c0,0.3-0.1,0.9-0.4,2.1c-0.3,1.3-0.4,2.1-0.4,2.4c0,0.2,0,0.3,0.1,0.4c0.1,0.1,0.2,0.2,0.3,0.2c0.2,0,0.4-0.1,0.7-0.4
		c0.3-0.2,0.6-0.6,1.1-1.2c0.1-0.1,0.3-0.2,0.4-0.2c0.1,0,0.2,0.1,0.3,0.2c0.1,0.1,0.1,0.3,0.1,0.5c0,0.4-0.1,0.7-0.3,0.9
		c-0.4,0.5-0.9,1-1.4,1.3c-0.5,0.3-1.1,0.5-1.7,0.5c-0.5,0-0.8-0.2-1.1-0.6c-0.2-0.4-0.3-0.9-0.3-1.6c-0.2,0.7-0.4,1.2-0.8,1.6
		c-0.3,0.4-0.7,0.5-1.1,0.5C81.8,13.2,81.5,13,81.2,12.6z"/>
	<path d="M94.7,10c0.1,0.1,0.1,0.3,0.1,0.5c0,0.4-0.1,0.7-0.3,0.9c-0.4,0.5-0.9,0.9-1.6,1.2s-1.4,0.6-2.2,0.6
		c-1.1,0-1.9-0.3-2.4-0.9c-0.6-0.6-0.9-1.4-0.9-2.3c0-0.7,0.1-1.3,0.4-1.9c0.3-0.6,0.7-1.1,1.2-1.4c0.5-0.4,1.1-0.5,1.7-0.5
		c0.6,0,1,0.2,1.4,0.5c0.4,0.3,0.5,0.8,0.5,1.4c0,0.7-0.2,1.3-0.7,1.8c-0.5,0.5-1.3,0.9-2.5,1.2c0.3,0.5,0.7,0.7,1.4,0.7
		c0.5,0,1-0.2,1.5-0.5c0.6-0.3,1.1-0.7,1.5-1.2c0.1-0.1,0.3-0.2,0.4-0.2C94.5,9.8,94.6,9.8,94.7,10z M89.7,8.2
		c-0.3,0.4-0.4,1-0.4,1.6v0c0.6-0.1,1.1-0.4,1.4-0.6c0.3-0.3,0.5-0.6,0.5-1c0-0.2-0.1-0.3-0.2-0.5c-0.1-0.1-0.2-0.2-0.4-0.2
		C90.2,7.6,89.9,7.8,89.7,8.2z"/>
	<path d="M101.2,10c0.1,0.1,0.1,0.3,0.1,0.5c0,0.4-0.1,0.7-0.3,0.9c-0.5,0.6-1.1,1.1-1.7,1.4c-0.7,0.4-1.5,0.5-2.3,0.5
		c-0.7,0-1.3-0.1-1.8-0.3c-0.5-0.2-0.9-0.5-1.1-0.8c-0.3-0.4-0.4-0.8-0.4-1.2c0-0.7,0.3-1.2,0.8-1.8c0.5-0.5,1.3-1,2.3-1.5l-2.5,0.1
		c-0.2,0-0.4-0.1-0.5-0.2c-0.1-0.2-0.2-0.4-0.2-0.6c0-0.2,0.1-0.5,0.2-0.6c0.1-0.2,0.3-0.3,0.5-0.3c0.5,0,1.1,0,1.8,0.1
		c0.2,0,0.5,0,0.9,0.1c0.4,0,0.8,0,1.1,0c0.1,0,0.3,0,0.6-0.1c0,0,0.1,0,0.3-0.1c0.1,0,0.3-0.1,0.4-0.1c0.2,0,0.3,0.1,0.4,0.2
		c0.1,0.1,0.2,0.4,0.2,0.6c0,0.3-0.1,0.6-0.2,0.8c-0.1,0.2-0.4,0.3-0.7,0.5C98,8.5,97.2,9,96.6,9.4c-0.6,0.4-0.9,0.9-0.9,1.3
		c0,0.3,0.1,0.5,0.4,0.7c0.3,0.2,0.6,0.3,1.2,0.3c0.6,0,1.1-0.1,1.7-0.4c0.6-0.3,1.1-0.7,1.6-1.3c0.1-0.1,0.3-0.2,0.4-0.2
		C101.1,9.8,101.2,9.8,101.2,10z"/>
</g>
</svg>
