<?xml version="1.0" encoding="utf-8"?>
<!-- Generator: Adobe Illustrator 26.4.1, SVG Export Plug-In . SVG Version: 6.00 Build 0)  -->
<svg version="1.1" id="Слой_1" xmlns="http://www.w3.org/2000/svg" xmlns:xlink="http://www.w3.org/1999/xlink" x="0px" y="0px"
	 viewBox="0 0 108.6 19.2" style="enable-background:new 0 0 108.6 19.2;" xml:space="preserve">
<style type="text/css">
	.st0{fill:#FFFFFF;}
</style>
<g>
	<path class="st0" d="M22.7,9.6c0.3,0,0.5,0.2,0.5,0.6c0,0.2-0.1,0.4-0.2,0.6s-0.3,0.3-0.5,0.3c-0.9,0.2-1.7,0.3-2.6,0.5l0,0.3
		c-0.3,1.9-0.8,3.3-1.6,4.2c-0.8,0.9-1.8,1.4-3,1.4c-0.8,0-1.4-0.2-1.8-0.6c-0.4-0.4-0.7-0.9-0.7-1.5c0-1,0.4-1.9,1.3-2.7
		c0.9-0.8,2.3-1.5,4.1-2.1l0.3-2c0-0.2,0.1-0.5,0.1-0.9c-0.4,1.2-1,2.1-1.7,2.6c-0.7,0.6-1.5,0.9-2.3,0.9c-0.8,0-1.4-0.2-1.9-0.8
		c-0.4-0.5-0.6-1.1-0.6-1.9c0-0.4,0-0.7,0.1-1.2c0.1-0.4,0.2-1,0.4-1.7c0.1-0.7,0.2-1.2,0.3-1.6c0.1-0.4,0.1-0.7,0.1-1
		c0-0.5-0.2-0.7-0.5-0.7c-0.3,0-0.6,0.1-1,0.4c-0.4,0.3-0.8,0.7-1.2,1.3c-0.1,0.2-0.3,0.3-0.4,0.3c-0.1,0-0.3-0.1-0.4-0.2
		C9.5,4,9.4,3.9,9.4,3.7c0-0.3,0.1-0.6,0.4-1c1-1.3,2.1-2,3.4-2c0.6,0,1,0.2,1.4,0.5c0.3,0.4,0.5,0.9,0.5,1.6c0,0.5,0,1-0.1,1.5
		c-0.1,0.5-0.2,1.2-0.4,2c-0.1,0.5-0.2,0.9-0.3,1.2c-0.1,0.3-0.1,0.5-0.1,0.7c0,0.5,0.1,0.8,0.3,1c0.2,0.2,0.5,0.3,0.9,0.3
		c0.5,0,1-0.3,1.6-0.9c0.5-0.6,1-1.4,1.5-2.6c0.4-1.2,0.7-2.6,0.9-4.2c0-0.4,0.2-0.7,0.3-0.9c0.2-0.2,0.4-0.3,0.7-0.3
		c0.7,0,1,0.3,1,1c0,0.1,0,0.2,0,0.3c-0.2,1.4-0.4,2.7-0.6,3.8c-0.1,0.7-0.2,1.4-0.3,2.1c-0.1,0.7-0.2,1.5-0.3,2.2
		c0.7-0.2,1.4-0.4,2.2-0.5C22.5,9.6,22.5,9.6,22.7,9.6z M18.1,12.2c-2.3,0.8-3.5,1.8-3.5,2.9c0,0.3,0.1,0.5,0.3,0.7
		c0.2,0.2,0.4,0.3,0.7,0.3C16.9,16.1,17.7,14.8,18.1,12.2L18.1,12.2z"/>
	<path class="st0" d="M28.9,9.8c0.1,0.1,0.1,0.3,0.1,0.5c0,0.4-0.1,0.7-0.3,0.9c-0.4,0.4-0.9,0.8-1.5,1.2s-1.3,0.5-2.1,0.5
		c-1,0-1.8-0.3-2.3-0.8c-0.6-0.5-0.8-1.3-0.8-2.2c0-0.7,0.1-1.3,0.4-1.8c0.3-0.6,0.7-1,1.2-1.4c0.5-0.3,1-0.5,1.7-0.5
		c0.6,0,1,0.2,1.3,0.5C27,7,27.1,7.5,27.1,8c0,0.7-0.2,1.2-0.7,1.7c-0.5,0.5-1.3,0.8-2.4,1.1c0.2,0.4,0.7,0.7,1.4,0.7
		c0.4,0,0.9-0.1,1.5-0.5c0.5-0.3,1-0.7,1.4-1.2c0.1-0.1,0.2-0.2,0.4-0.2C28.8,9.7,28.9,9.7,28.9,9.8z M24.2,8.2
		c-0.2,0.4-0.4,0.9-0.4,1.5v0c0.6-0.1,1-0.3,1.3-0.6c0.3-0.3,0.5-0.6,0.5-0.9c0-0.2-0.1-0.3-0.2-0.4c-0.1-0.1-0.2-0.2-0.4-0.2
		C24.7,7.6,24.4,7.8,24.2,8.2z"/>
	<path class="st0" d="M28.1,12.4c-0.1-0.4-0.2-1-0.2-1.8c0-1.2,0.2-2.4,0.5-3.5c0.1-0.3,0.2-0.5,0.4-0.6c0.2-0.1,0.5-0.2,0.8-0.2
		c0.2,0,0.3,0,0.4,0.1c0.1,0,0.1,0.1,0.1,0.3c0,0.2-0.1,0.5-0.2,1c-0.1,0.4-0.2,0.7-0.2,1c-0.1,0.3-0.1,0.6-0.1,1.1
		c0.3-0.8,0.7-1.5,1.1-2c0.4-0.5,0.8-0.9,1.2-1.1s0.7-0.3,1-0.3c0.6,0,0.9,0.3,0.9,0.9c0,0.4-0.1,1-0.3,2c-0.2,0.8-0.3,1.4-0.3,1.6
		c0,0.4,0.1,0.6,0.4,0.6c0.2,0,0.4-0.1,0.7-0.3c0.3-0.2,0.6-0.6,1.1-1.1c0.1-0.1,0.2-0.2,0.4-0.2c0.1,0,0.2,0.1,0.3,0.2
		s0.1,0.3,0.1,0.5c0,0.4-0.1,0.7-0.3,0.9c-0.4,0.5-0.9,0.9-1.3,1.2c-0.5,0.3-1,0.5-1.6,0.5c-0.5,0-0.9-0.1-1.1-0.4s-0.4-0.7-0.4-1.2
		c0-0.3,0.1-0.7,0.2-1.4c0.1-0.6,0.2-1,0.2-1.2c0-0.2-0.1-0.2-0.2-0.2c-0.1,0-0.3,0.2-0.5,0.5s-0.5,0.7-0.7,1.3
		c-0.2,0.5-0.4,1.1-0.6,1.7c-0.1,0.4-0.2,0.8-0.4,0.9s-0.4,0.2-0.7,0.2C28.5,12.9,28.3,12.7,28.1,12.4z"/>
	<path class="st0" d="M35.2,12.4c-0.1-0.4-0.2-1-0.2-1.8c0-1.2,0.2-2.4,0.5-3.5c0.1-0.3,0.2-0.5,0.4-0.6c0.2-0.1,0.5-0.2,0.8-0.2
		c0.2,0,0.3,0,0.4,0.1c0.1,0,0.1,0.1,0.1,0.3c0,0.2-0.1,0.5-0.2,1c-0.1,0.4-0.2,0.7-0.2,1c-0.1,0.3-0.1,0.6-0.1,1.1
		c0.3-0.8,0.7-1.5,1.1-2c0.4-0.5,0.8-0.9,1.2-1.1s0.7-0.3,1-0.3c0.6,0,0.9,0.3,0.9,0.9c0,0.4-0.1,1-0.3,2c-0.2,0.8-0.3,1.4-0.3,1.6
		c0,0.4,0.1,0.6,0.4,0.6c0.2,0,0.4-0.1,0.7-0.3c0.3-0.2,0.6-0.6,1.1-1.1c0.1-0.1,0.2-0.2,0.4-0.2c0.1,0,0.2,0.1,0.3,0.2
		s0.1,0.3,0.1,0.5c0,0.4-0.1,0.7-0.3,0.9c-0.4,0.5-0.9,0.9-1.3,1.2c-0.5,0.3-1,0.5-1.6,0.5c-0.5,0-0.9-0.1-1.1-0.4s-0.4-0.7-0.4-1.2
		c0-0.3,0.1-0.7,0.2-1.4c0.1-0.6,0.2-1,0.2-1.2c0-0.2-0.1-0.2-0.2-0.2c-0.1,0-0.3,0.2-0.5,0.5s-0.5,0.7-0.7,1.3
		c-0.2,0.5-0.4,1.1-0.6,1.7c-0.1,0.4-0.2,0.8-0.4,0.9s-0.4,0.2-0.7,0.2C35.6,12.9,35.4,12.7,35.2,12.4z"/>
	<path class="st0" d="M42.5,12.3c-0.3-0.4-0.4-1-0.4-1.7c0-0.4,0.1-1,0.2-1.7c0.1-0.7,0.3-1.3,0.4-1.9c0.1-0.3,0.2-0.5,0.3-0.6
		s0.4-0.2,0.7-0.2c0.5,0,0.7,0.2,0.7,0.5c0,0.2-0.1,0.8-0.3,1.7c-0.2,1-0.3,1.8-0.3,2.1c0,0.3,0,0.5,0.1,0.7
		c0.1,0.2,0.2,0.2,0.4,0.2c0.2,0,0.4-0.1,0.6-0.4c0.3-0.2,0.6-0.6,1-1.1c0.1-0.1,0.2-0.2,0.4-0.2c0.1,0,0.2,0.1,0.3,0.2
		s0.1,0.3,0.1,0.5c0,0.4-0.1,0.7-0.3,0.9c-0.9,1.2-1.8,1.7-2.6,1.7C43.2,12.9,42.8,12.7,42.5,12.3z M43.1,5
		c-0.2-0.2-0.3-0.4-0.3-0.8s0.1-0.6,0.4-0.8s0.6-0.3,1-0.3c0.4,0,0.6,0.1,0.9,0.3c0.2,0.2,0.3,0.4,0.3,0.7c0,0.4-0.1,0.7-0.4,0.9
		c-0.2,0.2-0.6,0.3-1,0.3C43.6,5.3,43.3,5.2,43.1,5z"/>
	<path class="st0" d="M61.5,6.8c0.1,0.1,0.1,0.2,0.1,0.4c0,0.2-0.1,0.5-0.2,0.7c-0.1,0.2-0.4,0.3-0.7,0.3c-0.8,0-1.4,0-2-0.2
		c-0.7,1.4-1.5,2.6-2.5,3.5c-1,0.9-1.9,1.4-2.9,1.4c-1,0-1.7-0.6-2.2-1.7c-0.5-1.2-0.7-2.7-0.7-4.7c0-1.7,0.1-3.2,0.4-4.5
		c0.1-0.5,0.2-0.8,0.4-1s0.4-0.3,0.8-0.3c0.6,0,0.9,0.3,0.9,0.8c0,0.1,0,0.2,0,0.3c-0.3,1.7-0.4,3.3-0.4,4.7c0,1.5,0.1,2.6,0.4,3.3
		s0.6,1.1,1.1,1.1c0.5,0,1-0.3,1.6-1c0.6-0.7,1.1-1.5,1.6-2.6c-0.6-0.4-1-0.8-1.3-1.4c-0.3-0.6-0.4-1.2-0.4-2c0-0.8,0.1-1.4,0.3-1.9
		c0.2-0.5,0.6-0.9,1-1.2s0.9-0.4,1.4-0.4c0.6,0,1.1,0.2,1.5,0.7S60,2.2,60,3c0,1.1-0.2,2.3-0.7,3.6c0.5,0.1,1.1,0.1,1.7,0.1
		C61.3,6.7,61.4,6.7,61.5,6.8z M57.7,5.9c0.4-1.1,0.6-1.9,0.6-2.6c0-0.4-0.1-0.7-0.2-0.9c-0.1-0.2-0.2-0.3-0.4-0.3
		c-0.3,0-0.5,0.1-0.6,0.5c-0.2,0.3-0.2,0.7-0.2,1.3C56.8,4.8,57.1,5.5,57.7,5.9z"/>
	<path class="st0" d="M60.1,12.3c-0.4-0.4-0.5-1-0.5-1.7c0-0.8,0.2-1.5,0.5-2.2s0.8-1.2,1.4-1.6c0.6-0.4,1.2-0.6,1.9-0.6
		c0.2,0,0.4,0,0.4,0.1s0.1,0.2,0.2,0.4c0.2,0,0.4-0.1,0.6-0.1c0.5,0,0.7,0.2,0.7,0.5c0,0.2-0.1,0.7-0.2,1.4
		c-0.2,1.1-0.3,1.9-0.3,2.3c0,0.1,0,0.3,0.1,0.3c0.1,0.1,0.2,0.1,0.3,0.1c0.2,0,0.4-0.1,0.7-0.3c0.3-0.2,0.6-0.6,1-1.1
		c0.1-0.1,0.2-0.2,0.4-0.2c0.1,0,0.2,0.1,0.3,0.2s0.1,0.3,0.1,0.5c0,0.4-0.1,0.7-0.3,0.9c-0.4,0.5-0.8,0.9-1.2,1.2
		c-0.4,0.3-0.9,0.5-1.3,0.5c-0.3,0-0.6-0.1-0.9-0.3c-0.3-0.2-0.5-0.5-0.6-0.9c-0.5,0.8-1.1,1.2-1.9,1.2
		C60.9,12.9,60.4,12.7,60.1,12.3z M62.6,11.1c0.2-0.2,0.3-0.6,0.4-1l0.5-2.6c-0.4,0-0.8,0.2-1.1,0.5c-0.3,0.3-0.6,0.7-0.8,1.2
		c-0.2,0.5-0.3,1-0.3,1.5c0,0.3,0.1,0.5,0.2,0.7c0.1,0.1,0.3,0.2,0.5,0.2S62.4,11.4,62.6,11.1z M63.1,5.1C63,5,63,4.9,63,4.7
		c0-0.1,0-0.2,0.1-0.3l1.3-3c0.1-0.2,0.2-0.3,0.3-0.4C64.8,1,65,0.9,65.2,0.9c0.2,0,0.5,0.1,0.6,0.3c0.2,0.2,0.3,0.4,0.3,0.6
		c0,0.3-0.1,0.5-0.3,0.8L63.9,5c-0.1,0.2-0.3,0.2-0.5,0.2C63.3,5.3,63.2,5.2,63.1,5.1z"/>
	<path class="st0" d="M73.6,9.8c0.1,0.1,0.1,0.3,0.1,0.5c0,0.4-0.1,0.6-0.3,0.9c-0.4,0.6-1,1-1.7,1.4c-0.7,0.3-1.4,0.5-2.2,0.5
		c-0.6,0-1.2-0.1-1.7-0.3c-0.5-0.2-0.8-0.5-1.1-0.8c-0.3-0.3-0.4-0.7-0.4-1.1c0-0.6,0.3-1.2,0.8-1.7c0.5-0.5,1.2-1,2.2-1.4l-2.3,0.1
		c-0.2,0-0.4-0.1-0.5-0.2c-0.1-0.2-0.2-0.3-0.2-0.6c0-0.2,0.1-0.4,0.2-0.6c0.1-0.2,0.3-0.3,0.5-0.3c0.4,0,1,0,1.8,0.1
		c0.2,0,0.4,0,0.8,0.1c0.4,0,0.7,0,1,0c0.1,0,0.3,0,0.5-0.1c0,0,0.1,0,0.3-0.1c0.1,0,0.3-0.1,0.4-0.1c0.2,0,0.3,0.1,0.4,0.2
		c0.1,0.1,0.2,0.3,0.2,0.6c0,0.3-0.1,0.5-0.2,0.7c-0.1,0.2-0.4,0.3-0.7,0.5c-0.9,0.4-1.6,0.8-2.2,1.2s-0.9,0.8-0.9,1.3
		c0,0.3,0.1,0.5,0.4,0.7c0.2,0.2,0.6,0.3,1.1,0.3c0.5,0,1.1-0.1,1.6-0.4c0.5-0.3,1-0.7,1.5-1.2c0.1-0.1,0.2-0.2,0.4-0.2
		C73.4,9.7,73.5,9.7,73.6,9.8z"/>
	<path class="st0" d="M80.7,10.6c0,0.4-0.1,0.7-0.2,0.9c-0.2,0.2-0.4,0.3-0.7,0.3l-0.5,0c-0.1,0-0.2,0-0.4,0c0,0.5,0.1,1.1,0.1,1.6
		c0,1.4-0.2,2.7-0.6,3.8c-0.4,1.1-1,1.6-1.8,1.6c-0.5,0-1-0.3-1.2-0.9c-0.3-0.6-0.4-1.4-0.4-2.3c0-1.1,0.1-2.2,0.4-3.3
		c-0.3,0.5-0.7,0.7-1.3,0.7c-0.5,0-1-0.2-1.3-0.7c-0.3-0.4-0.5-1-0.5-1.7c0-0.8,0.2-1.5,0.5-2.1c0.4-0.7,0.8-1.2,1.4-1.6
		s1.2-0.6,1.9-0.6c0.2,0,0.4,0.1,0.5,0.2c0.1-0.3,0.2-0.5,0.4-0.6c0.2-0.1,0.4-0.2,0.7-0.2c0.3,0,0.5,0,0.7,0.1s0.2,0.2,0.2,0.4
		c0,0.1-0.1,0.4-0.2,0.8c-0.1,0.4-0.2,0.7-0.2,0.8c-0.2,0.5-0.3,1.1-0.5,1.8c-0.2,0.6-0.3,1.2-0.4,1.8c-0.3,1.5-0.5,2.9-0.5,4
		c0,0.4,0,0.8,0.1,1.1S77,17,77.1,17c0.1,0,0.2-0.2,0.3-0.5c0.1-0.3,0.2-0.8,0.3-1.3c0.1-0.5,0.1-1.1,0.1-1.7c0-0.7,0-1.4-0.1-1.9
		c0,0,0-0.1,0-0.2c0-0.3,0.1-0.6,0.2-0.8c0.2-0.2,0.4-0.3,0.7-0.3c0,0,0.4,0,1.1,0c0.3,0,0.5,0,0.7,0C80.6,10.1,80.7,10.3,80.7,10.6
		z M75.2,11.1c0.2-0.3,0.3-0.6,0.4-1l0.6-2.6c-0.4,0-0.8,0.2-1.2,0.4c-0.3,0.3-0.6,0.7-0.8,1.1c-0.2,0.5-0.3,1-0.3,1.5
		c0,0.3,0.1,0.5,0.2,0.7c0.1,0.2,0.3,0.2,0.5,0.2C74.8,11.5,75,11.4,75.2,11.1z"/>
	<path class="st0" d="M79.9,12.3c-0.3-0.4-0.4-0.9-0.4-1.5c0-0.7,0-1.4,0.1-2c0.1-0.6,0.3-1.2,0.5-1.9c0.1-0.3,0.2-0.5,0.4-0.6
		c0.2-0.1,0.4-0.2,0.8-0.2c0.2,0,0.4,0,0.4,0.1c0.1,0.1,0.1,0.2,0.1,0.3c0,0.1-0.1,0.3-0.2,0.8c-0.1,0.4-0.2,0.7-0.2,1
		c-0.2,1-0.3,1.7-0.3,2c0,0.2,0,0.3,0.1,0.4s0.1,0.1,0.2,0.1c0.1,0,0.3-0.1,0.5-0.4c0.2-0.3,0.4-0.7,0.7-1.3C83,8.6,83.2,7.8,83.5,7
		c0.1-0.3,0.2-0.5,0.4-0.6c0.2-0.1,0.4-0.2,0.7-0.2c0.2,0,0.4,0,0.5,0.1s0.1,0.1,0.1,0.3c0,0.2-0.1,0.9-0.4,2
		c-0.3,1.2-0.4,2-0.4,2.3c0,0.2,0,0.3,0.1,0.4c0.1,0.1,0.2,0.1,0.3,0.1c0.2,0,0.4-0.1,0.7-0.3c0.3-0.2,0.6-0.6,1.1-1.1
		c0.1-0.1,0.2-0.2,0.4-0.2c0.1,0,0.2,0.1,0.3,0.2c0.1,0.1,0.1,0.3,0.1,0.5c0,0.4-0.1,0.7-0.3,0.9c-0.4,0.5-0.9,0.9-1.3,1.2
		c-0.5,0.3-1,0.5-1.6,0.5c-0.5,0-0.8-0.2-1-0.5c-0.2-0.4-0.3-0.8-0.3-1.5c-0.2,0.6-0.4,1.1-0.7,1.5s-0.7,0.5-1,0.5
		C80.6,12.9,80.2,12.7,79.9,12.3z"/>
	<path class="st0" d="M92.8,9.8c0.1,0.1,0.1,0.3,0.1,0.5c0,0.4-0.1,0.7-0.3,0.9c-0.4,0.4-0.9,0.8-1.5,1.2s-1.3,0.5-2.1,0.5
		c-1,0-1.8-0.3-2.3-0.8c-0.6-0.5-0.8-1.3-0.8-2.2c0-0.7,0.1-1.3,0.4-1.8c0.3-0.6,0.7-1,1.2-1.4c0.5-0.3,1-0.5,1.7-0.5
		c0.6,0,1,0.2,1.3,0.5C90.8,7,91,7.5,91,8c0,0.7-0.2,1.2-0.7,1.7c-0.5,0.5-1.3,0.8-2.4,1.1c0.2,0.4,0.7,0.7,1.4,0.7
		c0.4,0,0.9-0.1,1.5-0.5c0.5-0.3,1-0.7,1.4-1.2c0.1-0.1,0.2-0.2,0.4-0.2C92.6,9.7,92.7,9.7,92.8,9.8z M88,8.2
		c-0.2,0.4-0.4,0.9-0.4,1.5v0c0.6-0.1,1-0.3,1.3-0.6c0.3-0.3,0.5-0.6,0.5-0.9c0-0.2,0-0.3-0.1-0.4c-0.1-0.1-0.2-0.2-0.4-0.2
		C88.6,7.6,88.3,7.8,88,8.2z"/>
	<path class="st0" d="M99,9.8c0.1,0.1,0.1,0.3,0.1,0.5c0,0.4-0.1,0.6-0.3,0.9c-0.4,0.6-1,1-1.7,1.4c-0.7,0.3-1.4,0.5-2.2,0.5
		c-0.6,0-1.2-0.1-1.7-0.3c-0.5-0.2-0.8-0.5-1.1-0.8c-0.3-0.3-0.4-0.7-0.4-1.1c0-0.6,0.3-1.2,0.8-1.7c0.5-0.5,1.2-1,2.2-1.4l-2.3,0.1
		c-0.2,0-0.4-0.1-0.5-0.2c-0.1-0.2-0.2-0.3-0.2-0.6c0-0.2,0.1-0.4,0.2-0.6c0.1-0.2,0.3-0.3,0.5-0.3c0.4,0,1,0,1.8,0.1
		c0.2,0,0.4,0,0.8,0.1c0.4,0,0.7,0,1,0c0.1,0,0.3,0,0.5-0.1c0,0,0.1,0,0.3-0.1c0.1,0,0.3-0.1,0.4-0.1c0.2,0,0.3,0.1,0.4,0.2
		c0.1,0.1,0.2,0.3,0.2,0.6c0,0.3-0.1,0.5-0.2,0.7c-0.1,0.2-0.4,0.3-0.7,0.5c-0.9,0.4-1.6,0.8-2.2,1.2s-0.9,0.8-0.9,1.3
		c0,0.3,0.1,0.5,0.4,0.7c0.2,0.2,0.6,0.3,1.1,0.3c0.5,0,1.1-0.1,1.6-0.4c0.5-0.3,1-0.7,1.5-1.2c0.1-0.1,0.2-0.2,0.4-0.2
		C98.9,9.7,99,9.7,99,9.8z"/>
</g>
</svg>
